<svg xmlns="http://www.w3.org/2000/svg" version="1.1" xmlns:xlink="http://www.w3.org/1999/xlink" xmlns:svgjs="http://svgjs.dev/svgjs" width="128" height="128" viewBox="0 0 128 128"><g transform="matrix(0.8046875,0,0,0.8046875,12.333870967741937,12.333870967741937)"><svg viewBox="0 0 155 155" data-background-color="#ffffff" preserveAspectRatio="xMidYMid meet" height="128" width="128" xmlns="http://www.w3.org/2000/svg" xmlns:xlink="http://www.w3.org/1999/xlink"><g id="tight-bounds" transform="matrix(1,0,0,1,0.25,0.25)"><svg viewBox="0 0 154.5 154.5" height="154.5" width="154.5"><g><svg></svg></g><g><svg viewBox="0 0 154.5 154.5" height="154.5" width="154.5"><g transform="matrix(1,0,0,1,50.23614950859951,43.83165)"><svg viewBox="0 0 54.02770098280097 66.8367" height="66.8367" width="54.02770098280097"><g><svg viewBox="0 0 54.02770098280097 66.8367" height="66.8367" width="54.02770098280097"><g><svg viewBox="0 0 54.02770098280097 66.8367" height="66.8367" width="54.02770098280097"><g id="textblocktransform"><svg viewBox="0 0 54.02770098280097 66.8367" height="66.8367" width="54.02770098280097" id="textblock"><g><svg viewBox="0 0 54.02770098280097 66.8367" height="66.8367" width="54.02770098280097"><g transform="matrix(1,0,0,1,0,0)"><svg width="54.02770098280097" viewBox="5.05 -36.9 32.900000000000006 40.699999999999996" height="66.8367" data-palette-color="#ed2660"><path d="M37.65-33.7L37.65-33.7Q37.8-32.85 37.88-32.52 37.95-32.2 37.95-31.65L37.95-31.65Q37.95-30 37.23-28.58 36.5-27.15 35.25-26.55L35.25-26.55Q34.25-27.9 32.8-28.88 31.35-29.85 29.63-30.48 27.9-31.1 26.05-31.4 24.2-31.7 22.45-31.7L22.45-31.7Q20.7-31.7 19.18-31.43 17.65-31.15 16.48-30.68 15.3-30.2 14.63-29.5 13.95-28.8 13.95-27.9L13.95-27.9Q14.1-26.8 15.3-25.68 16.5-24.55 18.25-23.48 20-22.4 22.13-21.35 24.25-20.3 26.3-19.35L26.3-19.35Q28.85-18.15 30.7-17.13 32.55-16.1 33.75-14.88 34.95-13.65 35.55-12.1 36.15-10.55 36.15-8.35L36.15-8.35Q36.15-5.8 35.3-3.58 34.45-1.35 32.83 0.3 31.2 1.95 28.9 2.88 26.6 3.8 23.75 3.8L23.75 3.8Q20.95 3.8 17.7 2.95 14.45 2.1 11.63 0.63 8.8-0.85 6.93-2.78 5.05-4.7 5.05-6.85L5.05-6.85Q5.05-7.85 5.63-9.4 6.2-10.95 7.7-12.65L7.7-12.65Q7.85-11.15 9.33-9.1 10.8-7.05 13.75-5.3L13.75-5.3Q16.5-3.7 19.43-2.98 22.35-2.25 24.9-2.25L24.9-2.25Q27.7-2.25 29.45-2.95 31.2-3.65 32.2-4.63 33.2-5.6 33.6-6.6 34-7.6 34.05-8.2L34.05-8.2Q34-9.2 33.13-10.13 32.25-11.05 30.78-11.93 29.3-12.8 27.35-13.7 25.4-14.6 23.3-15.5L23.3-15.5Q20.15-16.9 17.88-18.13 15.6-19.35 14.13-20.63 12.65-21.9 11.98-23.3 11.3-24.7 11.3-26.5L11.3-26.5Q11.3-29.3 13-31.8 14.7-34.3 17.9-35.6L17.9-35.6Q19.5-36.3 21.33-36.6 23.15-36.9 24.9-36.9L24.9-36.9Q28.2-36.9 31.35-36 34.5-35.1 37.65-33.7Z" opacity="1" transform="matrix(1,0,0,1,0,0)" fill="#ffffff" class="undefined-text-0" data-fill-palette-color="primary" id="text-0"></path></svg></g></svg></g></svg></g></svg></g><g></g></svg></g></svg></g><g mask="url(#bc64c995-50b2-4461-b632-180e87599537)"><g transform="matrix(1.559097461482625, 0, 0, 1.559097461482625, 18.24907476511303, 1)"><svg xmlns="http://www.w3.org/2000/svg" xmlns:xlink="http://www.w3.org/1999/xlink" version="1.1" x="0" y="0" viewBox="12.983 1 75.68599999999999 97.813" enable-background="new 0 0 100 100" xml:space="preserve" height="97.813" width="75.68599999999999" class="icon-none" data-fill-palette-color="accent" id="none"><g fill="#ed266d" data-fill-palette-color="accent"><polygon fill-rule="evenodd" clip-rule="evenodd" points="12.983,10.59 30.001,98.813 24.129,39.764 53.15,37.872 53.096,27.989    64.549,1 53.622,18.977  " fill="#ffffff" data-fill-palette-color="accent"></polygon><polygon fill-rule="evenodd" clip-rule="evenodd" points="59.389,54.548 64.549,1.007 55.809,40.723 36.197,41.768 37.767,62.23    30.001,98.813 42.058,58.914  " fill="#ffffff" data-fill-palette-color="accent"></polygon><polygon fill-rule="evenodd" clip-rule="evenodd" points="62.8,67.182 63.349,56.729 47.37,60.484 47.338,72.281 30.001,98.813    51.681,71.197  " fill="#ffffff" data-fill-palette-color="accent"></polygon><polygon fill-rule="evenodd" clip-rule="evenodd" points="65.711,62.394 80.552,57.663 82.061,45.131 66.162,47.226  " fill="#ffffff" data-fill-palette-color="accent"></polygon><polygon fill-rule="evenodd" clip-rule="evenodd" points="72.07,44.502 83.058,43.085 84.639,32.807 76.56,32.434 64.549,1    72.979,31.967  " fill="#ffffff" data-fill-palette-color="accent"></polygon><polygon fill-rule="evenodd" clip-rule="evenodd" points="87.413,31.294 88.669,21.788 79.125,19.094 64.549,1 79.032,23.437    78.61,30.437  " fill="#ffffff" data-fill-palette-color="accent"></polygon></g></svg></g></g></svg></g><defs><mask id="bc64c995-50b2-4461-b632-180e87599537"><rect width="250" height="250" fill="white"></rect><rect width="59.43047108108107" height="98.3937815784" fill="black" x="95.28476445945947" y="75.8031092108" id="transform-me" transform="matrix(1,0,0,1,-47.75,-47.75)"></rect></mask></defs></svg><rect width="154.5" height="154.5" fill="none" stroke="none" visibility="hidden"></rect></g></svg></g></svg>